# xmcd
#
# Track frame offsets:
#	150
#	16815
#	26247
#	39943
#	52183
#	66661
#	81895
#	90401
#	103098
#	115493
#	124667
#	135338
#	152254
#	164766
#	174867
#
# Disc length: 2450 seconds
#
# Revision: 1
# Processed by: cddbd v1.5.1PL0 Copyright (c) Steve Scherf et al.
# Submitted via: audiograbber 1.82.02
#
DISCID=c009900f
DTITLE=Various Artist - A Texas Rock'n'Roll Compilation
DYEAR=2004
DGENRE=Country Rock
TTITLE0=The Stepbrothers - Shut It Down
TTITLE1=The Ugly Beats - I'll Come Again
TTITLE2=The Hotrails - Down For The Count
TTITLE3=The Dragstrip Bros. - The Assassin
TTITLE4=The Crack Pipes - Rescue Party
TTITLE5=The Golden Boys - I Want You
TTITLE6=Jesus Christ Superfly - Twisted up Inside
TTITLE7=The Hard Feelings - Half In  The Morning
TTITLE8=The Sunday Drunks - hard Drinkin' Woman
TTITLE9=The ravens - Jealous Kind
TTITLE10=The Deadites - I Can't Behave
TTITLE11=McLemore Avenue - A Toy Robot
TTITLE12=00 Spies - Such A Bad Guy
TTITLE13=White Heat - Doomed To Rot
TTITLE14=The Ka-Nives - Let's Dance
EXTD=
EXTT0=
EXTT1=
EXTT2=
EXTT3=
EXTT4=
EXTT5=
EXTT6=
EXTT7=
EXTT8=
EXTT9=
EXTT10=
EXTT11=
EXTT12=
EXTT13=
EXTT14=
PLAYORDER=
